solid Camera_stand
facet normal 0.0 -1.0 -3.5790814756353484e-14
  outer loop
    vertex 720.7561985880521 568.2213014920334 -3.0822289165399756e-13
    vertex 724.7561985880521 568.2213014920333 3.9999999999996847
    vertex 720.7561985880521 568.2213014920331 7.999999999999677
  endloop
endfacet
facet normal 0.0 -1.0 -3.5790814756353484e-14
  outer loop
    vertex 724.7561985880521 568.2213014920333 3.9999999999996847
    vertex 720.7561985880521 568.2213014920334 -3.0822289165399756e-13
    vertex 784.7561985880521 568.2213014920334 -3.0822289165399756e-13
  endloop
endfacet
facet normal 0.0 -1.0 -3.5790814756353484e-14
  outer loop
    vertex 724.7561985880521 568.2213014920333 3.9999999999996847
    vertex 784.7561985880521 568.2213014920334 -3.0822289165399756e-13
    vertex 740.7561985880521 568.2213014920333 3.9999999999996847
  endloop
endfacet
facet normal 0.0 -1.0 -3.5790814756353484e-14
  outer loop
    vertex 740.7561985880521 568.2213014920333 3.9999999999996847
    vertex 784.7561985880521 568.2213014920334 -3.0822289165399756e-13
    vertex 740.7561985880521 568.2213014920331 7.999999999999677
  endloop
endfacet
facet normal 0.0 -1.0 -3.5790814756353484e-14
  outer loop
    vertex 740.7561985880521 568.2213014920331 7.999999999999677
    vertex 784.7561985880521 568.2213014920334 -3.0822289165399756e-13
    vertex 762.7561985880523 568.2213014920333 3.9999999999996847
  endloop
endfacet
facet normal 0.0 -1.0 -3.5790814756353484e-14
  outer loop
    vertex 762.7561985880523 568.2213014920333 3.9999999999996847
    vertex 784.7561985880521 568.2213014920334 -3.0822289165399756e-13
    vertex 780.7561985880521 568.2213014920333 3.9999999999996847
  endloop
endfacet
facet normal 0.0 -1.0 -3.5790814756353484e-14
  outer loop
    vertex 780.7561985880521 568.2213014920333 3.9999999999996847
    vertex 784.7561985880521 568.2213014920334 -3.0822289165399756e-13
    vertex 780.7561985880521 568.2213014920331 7.999999999999677
  endloop
endfacet
facet normal 0.0 -1.0 -3.5790814756353484e-14
  outer loop
    vertex 780.7561985880521 568.2213014920331 7.999999999999677
    vertex 784.7561985880521 568.2213014920334 -3.0822289165399756e-13
    vertex 784.7561985880521 568.2213014920331 7.999999999999677
  endloop
endfacet
facet normal 0.0 -1.0 -3.5790814756353484e-14
  outer loop
    vertex 762.7561985880523 568.2213014920331 7.999999999999677
    vertex 740.7561985880521 568.2213014920331 7.999999999999677
    vertex 762.7561985880523 568.2213014920333 3.9999999999996847
  endloop
endfacet
facet normal 0.0 -1.0 -3.5790814756353484e-14
  outer loop
    vertex 724.7561985880521 568.2213014920331 7.999999999999677
    vertex 720.7561985880521 568.2213014920331 7.999999999999677
    vertex 724.7561985880521 568.2213014920333 3.9999999999996847
  endloop
endfacet
facet normal -1.0 0.0 0.0
  outer loop
    vertex 740.7561985880521 568.2213014920331 7.999999999999677
    vertex 740.7561985880521 574.2213014920334 3.9999999999999307
    vertex 740.7561985880521 568.2213014920333 3.9999999999996847
  endloop
endfacet
facet normal -1.0 0.0 0.0
  outer loop
    vertex 740.7561985880521 574.2213014920334 3.9999999999999307
    vertex 740.7561985880521 568.2213014920331 7.999999999999677
    vertex 740.7561985880521 574.2213014920331 7.999999999999924
  endloop
endfacet
facet normal 0.0 -3.5790814756353484e-14 1.0
  outer loop
    vertex 740.7561985880521 568.2213014920331 7.999999999999677
    vertex 762.7561985880523 574.2213014920331 7.999999999999924
    vertex 740.7561985880521 574.2213014920331 7.999999999999924
  endloop
endfacet
facet normal 0.0 -3.5790814756353484e-14 1.0
  outer loop
    vertex 762.7561985880523 574.2213014920331 7.999999999999924
    vertex 740.7561985880521 568.2213014920331 7.999999999999677
    vertex 762.7561985880523 568.2213014920331 7.999999999999677
  endloop
endfacet
facet normal 1.0 0.0 0.0
  outer loop
    vertex 762.7561985880523 574.2213014920334 3.9999999999999307
    vertex 762.7561985880523 568.2213014920331 7.999999999999677
    vertex 762.7561985880523 568.2213014920333 3.9999999999996847
  endloop
endfacet
facet normal 1.0 0.0 0.0
  outer loop
    vertex 762.7561985880523 568.2213014920331 7.999999999999677
    vertex 762.7561985880523 574.2213014920334 3.9999999999999307
    vertex 762.7561985880523 574.2213014920331 7.999999999999924
  endloop
endfacet
facet normal 1.0 0.0 0.0
  outer loop
    vertex 724.7561985880521 580.8213014920334 9.182515858796575e-14
    vertex 724.7561985880521 574.2213014920334 3.9999999999999307
    vertex 724.7561985880521 574.2213014920334 -6.186162693211392e-14
  endloop
endfacet
facet normal 1.0 0.0 0.0
  outer loop
    vertex 724.7561985880521 574.2213014920334 3.9999999999999307
    vertex 724.7561985880521 580.8213014920334 9.182515858796575e-14
    vertex 724.7561985880521 580.8213014920332 8.000000000000167
  endloop
endfacet
facet normal 1.0 0.0 0.0
  outer loop
    vertex 724.7561985880521 574.2213014920334 3.9999999999999307
    vertex 724.7561985880521 580.8213014920332 8.000000000000167
    vertex 724.7561985880521 568.2213014920331 7.999999999999677
  endloop
endfacet
facet normal 1.0 0.0 0.0
  outer loop
    vertex 724.7561985880521 568.2213014920331 7.999999999999677
    vertex 724.7561985880521 568.2213014920333 3.9999999999996847
    vertex 724.7561985880521 574.2213014920334 3.9999999999999307
  endloop
endfacet
facet normal -1.0 0.0 0.0
  outer loop
    vertex 780.7561985880521 568.2213014920331 7.999999999999677
    vertex 780.7561985880521 574.2213014920334 3.9999999999999307
    vertex 780.7561985880521 568.2213014920333 3.9999999999996847
  endloop
endfacet
facet normal -1.0 0.0 0.0
  outer loop
    vertex 780.7561985880521 574.2213014920334 3.9999999999999307
    vertex 780.7561985880521 580.9713014920334 9.121627064789798e-14
    vertex 780.7561985880521 574.2213014920334 -6.186162693211392e-14
  endloop
endfacet
facet normal -1.0 0.0 0.0
  outer loop
    vertex 780.7561985880521 580.9713014920334 9.121627064789798e-14
    vertex 780.7561985880521 574.2213014920334 3.9999999999999307
    vertex 780.7561985880521 580.9713014920331 8.000000000000167
  endloop
endfacet
facet normal -1.0 0.0 0.0
  outer loop
    vertex 780.7561985880521 580.9713014920331 8.000000000000167
    vertex 780.7561985880521 574.2213014920334 3.9999999999999307
    vertex 780.7561985880521 568.2213014920331 7.999999999999677
  endloop
endfacet
facet normal -1.0 0.0 0.0
  outer loop
    vertex 720.7561985880521 568.2213014920331 7.999999999999677
    vertex 720.7561985880521 606.2213014920335 1.0715872633682009e-12
    vertex 720.7561985880521 568.2213014920334 -3.0822289165399756e-13
  endloop
endfacet
facet normal -1.0 0.0 0.0
  outer loop
    vertex 720.7561985880521 606.2213014920335 1.0715872633682009e-12
    vertex 720.7561985880521 568.2213014920331 7.999999999999677
    vertex 720.7561985880521 601.2213014920331 8.000000000000897
  endloop
endfacet
facet normal -1.0 0.0 0.0
  outer loop
    vertex 720.7561985880521 606.2213014920335 1.0715872633682009e-12
    vertex 720.7561985880521 601.2213014920331 8.000000000000897
    vertex 720.7561985880521 606.2213014920328 18.000000000001037
  endloop
endfacet
facet normal -1.0 0.0 0.0
  outer loop
    vertex 720.7561985880521 606.2213014920328 18.000000000001037
    vertex 720.7561985880521 601.2213014920331 8.000000000000897
    vertex 720.7561985880521 601.2213014920328 18.000000000000878
  endloop
endfacet
facet normal 0.0 -1.0 -3.5790814756353484e-14
  outer loop
    vertex 768.7561985880521 601.2213014920334 8.211667457125315e-13
    vertex 736.7561985880521 601.2213014920331 8.000000000000897
    vertex 736.7561985880521 601.2213014920334 8.211667457125315e-13
  endloop
endfacet
facet normal 0.0 -1.0 -3.5790814756353484e-14
  outer loop
    vertex 736.7561985880521 601.2213014920331 8.000000000000897
    vertex 720.7561985880521 601.2213014920328 18.000000000000878
    vertex 720.7561985880521 601.2213014920331 8.000000000000897
  endloop
endfacet
facet normal 0.0 -1.0 -3.5790814756353484e-14
  outer loop
    vertex 720.7561985880521 601.2213014920328 18.000000000000878
    vertex 736.7561985880521 601.2213014920331 8.000000000000897
    vertex 784.7561985880521 601.2213014920328 18.000000000000878
  endloop
endfacet
facet normal 0.0 -1.0 -3.5790814756353484e-14
  outer loop
    vertex 784.7561985880521 601.2213014920328 18.000000000000878
    vertex 736.7561985880521 601.2213014920331 8.000000000000897
    vertex 768.7561985880521 601.2213014920331 8.000000000000897
  endloop
endfacet
facet normal 0.0 -1.0 -3.5790814756353484e-14
  outer loop
    vertex 768.7561985880521 601.2213014920331 8.000000000000897
    vertex 736.7561985880521 601.2213014920331 8.000000000000897
    vertex 768.7561985880521 601.2213014920334 8.211667457125315e-13
  endloop
endfacet
facet normal 0.0 -1.0 -3.5790814756353484e-14
  outer loop
    vertex 784.7561985880521 601.2213014920328 18.000000000000878
    vertex 768.7561985880521 601.2213014920331 8.000000000000897
    vertex 784.7561985880521 601.2213014920331 8.000000000000897
  endloop
endfacet
facet normal 0.0 -3.5790814756353484e-14 1.0
  outer loop
    vertex 720.7561985880521 601.2213014920328 18.000000000000878
    vertex 784.7561985880521 606.2213014920328 18.000000000001037
    vertex 720.7561985880521 606.2213014920328 18.000000000001037
  endloop
endfacet
facet normal 0.0 -3.5790814756353484e-14 1.0
  outer loop
    vertex 784.7561985880521 606.2213014920328 18.000000000001037
    vertex 720.7561985880521 601.2213014920328 18.000000000000878
    vertex 784.7561985880521 601.2213014920328 18.000000000000878
  endloop
endfacet
facet normal 0.0 1.0 3.5790814756353484e-14
  outer loop
    vertex 784.7561985880521 606.2213014920328 18.000000000001037
    vertex 720.7561985880521 606.2213014920335 1.0715872633682009e-12
    vertex 720.7561985880521 606.2213014920328 18.000000000001037
  endloop
endfacet
facet normal 0.0 1.0 3.5790814756353484e-14
  outer loop
    vertex 720.7561985880521 606.2213014920335 1.0715872633682009e-12
    vertex 784.7561985880521 606.2213014920328 18.000000000001037
    vertex 784.7561985880521 606.2213014920335 1.0715872633682009e-12
  endloop
endfacet
facet normal 0.0 1.0 3.5790814756353484e-14
  outer loop
    vertex 762.7561985880523 574.2213014920331 7.999999999999924
    vertex 740.7561985880521 574.2213014920334 3.9999999999999307
    vertex 740.7561985880521 574.2213014920331 7.999999999999924
  endloop
endfacet
facet normal 0.0 1.0 3.5790814756353484e-14
  outer loop
    vertex 740.7561985880521 574.2213014920334 3.9999999999999307
    vertex 724.7561985880521 574.2213014920334 -6.186162693211392e-14
    vertex 724.7561985880521 574.2213014920334 3.9999999999999307
  endloop
endfacet
facet normal 0.0 1.0 3.5790814756353484e-14
  outer loop
    vertex 724.7561985880521 574.2213014920334 -6.186162693211392e-14
    vertex 740.7561985880521 574.2213014920334 3.9999999999999307
    vertex 780.7561985880521 574.2213014920334 -6.186162693211392e-14
  endloop
endfacet
facet normal 0.0 1.0 3.5790814756353484e-14
  outer loop
    vertex 780.7561985880521 574.2213014920334 -6.186162693211392e-14
    vertex 740.7561985880521 574.2213014920334 3.9999999999999307
    vertex 762.7561985880523 574.2213014920334 3.9999999999999307
  endloop
endfacet
facet normal 0.0 1.0 3.5790814756353484e-14
  outer loop
    vertex 762.7561985880523 574.2213014920334 3.9999999999999307
    vertex 740.7561985880521 574.2213014920334 3.9999999999999307
    vertex 762.7561985880523 574.2213014920331 7.999999999999924
  endloop
endfacet
facet normal 0.0 1.0 3.5790814756353484e-14
  outer loop
    vertex 780.7561985880521 574.2213014920334 -6.186162693211392e-14
    vertex 762.7561985880523 574.2213014920334 3.9999999999999307
    vertex 780.7561985880521 574.2213014920334 3.9999999999999307
  endloop
endfacet
facet normal 0.0 -3.5790814756353484e-14 1.0
  outer loop
    vertex 762.7561985880523 568.2213014920333 3.9999999999996847
    vertex 780.7561985880521 574.2213014920334 3.9999999999999307
    vertex 762.7561985880523 574.2213014920334 3.9999999999999307
  endloop
endfacet
facet normal 0.0 -3.5790814756353484e-14 1.0
  outer loop
    vertex 780.7561985880521 574.2213014920334 3.9999999999999307
    vertex 762.7561985880523 568.2213014920333 3.9999999999996847
    vertex 780.7561985880521 568.2213014920333 3.9999999999996847
  endloop
endfacet
facet normal 1.0 0.0 0.0
  outer loop
    vertex 784.7561985880521 606.2213014920335 1.0715872633682009e-12
    vertex 784.7561985880521 568.2213014920331 7.999999999999677
    vertex 784.7561985880521 568.2213014920334 -3.0822289165399756e-13
  endloop
endfacet
facet normal 1.0 0.0 0.0
  outer loop
    vertex 784.7561985880521 568.2213014920331 7.999999999999677
    vertex 784.7561985880521 606.2213014920335 1.0715872633682009e-12
    vertex 784.7561985880521 601.2213014920331 8.000000000000897
  endloop
endfacet
facet normal 1.0 0.0 0.0
  outer loop
    vertex 784.7561985880521 601.2213014920331 8.000000000000897
    vertex 784.7561985880521 606.2213014920335 1.0715872633682009e-12
    vertex 784.7561985880521 606.2213014920328 18.000000000001037
  endloop
endfacet
facet normal 1.0 0.0 0.0
  outer loop
    vertex 784.7561985880521 601.2213014920331 8.000000000000897
    vertex 784.7561985880521 606.2213014920328 18.000000000001037
    vertex 784.7561985880521 601.2213014920328 18.000000000000878
  endloop
endfacet
facet normal 0.0 -3.5790814756353484e-14 1.0
  outer loop
    vertex 720.7561985880521 601.2213014920331 8.000000000000897
    vertex 724.7561985880521 580.8213014920332 8.000000000000167
    vertex 736.7561985880521 601.2213014920331 8.000000000000897
  endloop
endfacet
facet normal 0.0 -3.5790814756353484e-14 1.0
  outer loop
    vertex 724.7561985880521 580.8213014920332 8.000000000000167
    vertex 720.7561985880521 601.2213014920331 8.000000000000897
    vertex 720.7561985880521 568.2213014920331 7.999999999999677
  endloop
endfacet
facet normal 0.0 -3.5790814756353484e-14 1.0
  outer loop
    vertex 724.7561985880521 580.8213014920332 8.000000000000167
    vertex 720.7561985880521 568.2213014920331 7.999999999999677
    vertex 724.7561985880521 568.2213014920331 7.999999999999677
  endloop
endfacet
facet normal 0.0 -3.5790814756353484e-14 1.0
  outer loop
    vertex 724.7561985880521 568.2213014920333 3.9999999999996847
    vertex 740.7561985880521 574.2213014920334 3.9999999999999307
    vertex 724.7561985880521 574.2213014920334 3.9999999999999307
  endloop
endfacet
facet normal 0.0 -3.5790814756353484e-14 1.0
  outer loop
    vertex 740.7561985880521 574.2213014920334 3.9999999999999307
    vertex 724.7561985880521 568.2213014920333 3.9999999999996847
    vertex 740.7561985880521 568.2213014920333 3.9999999999996847
  endloop
endfacet
facet normal -0.8602915336341747 -0.5098023903017324 -1.8223955504214323e-14
  outer loop
    vertex 780.7561985880521 580.9713014920331 8.000000000000167
    vertex 768.7561985880521 601.2213014920334 8.211667457125315e-13
    vertex 780.7561985880521 580.9713014920334 9.121627064789798e-14
  endloop
endfacet
facet normal -0.8602915336341747 -0.5098023903017324 -1.8223955504214323e-14
  outer loop
    vertex 768.7561985880521 601.2213014920334 8.211667457125315e-13
    vertex 780.7561985880521 580.9713014920331 8.000000000000167
    vertex 768.7561985880521 601.2213014920331 8.000000000000897
  endloop
endfacet
facet normal 7.863674115413739e-17 -3.579924783317614e-14 1.0
  outer loop
    vertex 780.7561985880521 580.9713014920331 8.000000000000167
    vertex 784.7561985880521 601.2213014920331 8.000000000000897
    vertex 768.7561985880521 601.2213014920331 8.000000000000897
  endloop
endfacet
facet normal 7.863674115413739e-17 -3.579924783317614e-14 1.0
  outer loop
    vertex 784.7561985880521 601.2213014920331 8.000000000000897
    vertex 780.7561985880521 580.9713014920331 8.000000000000167
    vertex 784.7561985880521 568.2213014920331 7.999999999999677
  endloop
endfacet
facet normal 7.863674115413739e-17 -3.579924783317614e-14 1.0
  outer loop
    vertex 784.7561985880521 568.2213014920331 7.999999999999677
    vertex 780.7561985880521 580.9713014920331 8.000000000000167
    vertex 780.7561985880521 568.2213014920331 7.999999999999677
  endloop
endfacet
facet normal 0.0 3.5790814756353484e-14 -1.0
  outer loop
    vertex 784.7561985880521 606.2213014920335 1.0715872633682009e-12
    vertex 768.7561985880521 601.2213014920334 8.211667457125315e-13
    vertex 720.7561985880521 606.2213014920335 1.0715872633682009e-12
  endloop
endfacet
facet normal 0.0 3.5790814756353484e-14 -1.0
  outer loop
    vertex 768.7561985880521 601.2213014920334 8.211667457125315e-13
    vertex 784.7561985880521 606.2213014920335 1.0715872633682009e-12
    vertex 780.7561985880521 580.9713014920334 9.121627064789798e-14
  endloop
endfacet
facet normal 0.0 3.5790814756353484e-14 -1.0
  outer loop
    vertex 780.7561985880521 580.9713014920334 9.121627064789798e-14
    vertex 784.7561985880521 606.2213014920335 1.0715872633682009e-12
    vertex 784.7561985880521 568.2213014920334 -3.0822289165399756e-13
  endloop
endfacet
facet normal 0.0 3.5790814756353484e-14 -1.0
  outer loop
    vertex 780.7561985880521 580.9713014920334 9.121627064789798e-14
    vertex 784.7561985880521 568.2213014920334 -3.0822289165399756e-13
    vertex 780.7561985880521 574.2213014920334 -6.186162693211392e-14
  endloop
endfacet
facet normal 0.0 3.5790814756353484e-14 -1.0
  outer loop
    vertex 780.7561985880521 574.2213014920334 -6.186162693211392e-14
    vertex 784.7561985880521 568.2213014920334 -3.0822289165399756e-13
    vertex 724.7561985880521 574.2213014920334 -6.186162693211392e-14
  endloop
endfacet
facet normal 0.0 3.5790814756353484e-14 -1.0
  outer loop
    vertex 720.7561985880521 606.2213014920335 1.0715872633682009e-12
    vertex 724.7561985880521 580.8213014920334 9.182515858796575e-14
    vertex 720.7561985880521 568.2213014920334 -3.0822289165399756e-13
  endloop
endfacet
facet normal 0.0 3.5790814756353484e-14 -1.0
  outer loop
    vertex 724.7561985880521 580.8213014920334 9.182515858796575e-14
    vertex 720.7561985880521 606.2213014920335 1.0715872633682009e-12
    vertex 736.7561985880521 601.2213014920334 8.211667457125315e-13
  endloop
endfacet
facet normal 0.0 3.5790814756353484e-14 -1.0
  outer loop
    vertex 736.7561985880521 601.2213014920334 8.211667457125315e-13
    vertex 720.7561985880521 606.2213014920335 1.0715872633682009e-12
    vertex 768.7561985880521 601.2213014920334 8.211667457125315e-13
  endloop
endfacet
facet normal 0.0 3.5790814756353484e-14 -1.0
  outer loop
    vertex 720.7561985880521 568.2213014920334 -3.0822289165399756e-13
    vertex 724.7561985880521 580.8213014920334 9.182515858796575e-14
    vertex 724.7561985880521 574.2213014920334 -6.186162693211392e-14
  endloop
endfacet
facet normal 0.0 3.5790814756353484e-14 -1.0
  outer loop
    vertex 720.7561985880521 568.2213014920334 -3.0822289165399756e-13
    vertex 724.7561985880521 574.2213014920334 -6.186162693211392e-14
    vertex 784.7561985880521 568.2213014920334 -3.0822289165399756e-13
  endloop
endfacet
facet normal 0.8619342151577696 -0.507020126563394 -1.814666342757333e-14
  outer loop
    vertex 736.7561985880521 601.2213014920334 8.211667457125315e-13
    vertex 724.7561985880521 580.8213014920332 8.000000000000167
    vertex 724.7561985880521 580.8213014920334 9.182515858796575e-14
  endloop
endfacet
facet normal 0.8619342151577696 -0.507020126563394 -1.814666342757333e-14
  outer loop
    vertex 724.7561985880521 580.8213014920332 8.000000000000167
    vertex 736.7561985880521 601.2213014920334 8.211667457125315e-13
    vertex 736.7561985880521 601.2213014920331 8.000000000000897
  endloop
endfacet
endsolid Camera_stand
