solid Camera_stand_long
facet normal 1.0974728258397528e-15 -1.0 -1.1217418059166964e-14
  outer loop
    vertex 720.7561985880521 601.2213014920318 8.000000000002263
    vertex 725.7561985880519 601.2213014920316 15.000000000002116
    vertex 720.7561985880521 601.2213014920314 100.00000000000327
  endloop
endfacet
facet normal 1.0974728258397528e-15 -1.0 -1.1217418059166964e-14
  outer loop
    vertex 725.7561985880519 601.2213014920316 15.000000000002116
    vertex 720.7561985880521 601.2213014920318 8.000000000002263
    vertex 779.7561985880524 601.2213014920316 15.000000000002116
  endloop
endfacet
facet normal 1.0974728258397528e-15 -1.0 -1.1217418059166964e-14
  outer loop
    vertex 720.7561985880521 601.2213014920314 100.00000000000327
    vertex 725.7561985880519 601.2213014920316 15.000000000002116
    vertex 725.7561985880519 601.2213014920314 100.00000000000327
  endloop
endfacet
facet normal 1.0974728258397528e-15 -1.0 -1.1217418059166964e-14
  outer loop
    vertex 784.7561985880521 601.2213014920318 8.000000000002263
    vertex 779.7561985880524 601.2213014920316 15.000000000002116
    vertex 768.7561985880521 601.2213014920318 8.000000000002263
  endloop
endfacet
facet normal 1.0974728258397528e-15 -1.0 -1.1217418059166964e-14
  outer loop
    vertex 779.7561985880524 601.2213014920316 15.000000000002116
    vertex 784.7561985880521 601.2213014920318 8.000000000002263
    vertex 784.7561985880521 601.2213014920314 100.00000000000327
  endloop
endfacet
facet normal 1.0974728258397528e-15 -1.0 -1.1217418059166964e-14
  outer loop
    vertex 768.7561985880521 601.2213014920318 8.000000000002263
    vertex 779.7561985880524 601.2213014920316 15.000000000002116
    vertex 736.7561985880521 601.2213014920318 8.000000000002263
  endloop
endfacet
facet normal 1.0974728258397528e-15 -1.0 -1.1217418059166964e-14
  outer loop
    vertex 736.7561985880521 601.2213014920318 8.000000000002263
    vertex 779.7561985880524 601.2213014920316 15.000000000002116
    vertex 720.7561985880521 601.2213014920318 8.000000000002263
  endloop
endfacet
facet normal 1.0974728258397528e-15 -1.0 -1.1217418059166964e-14
  outer loop
    vertex 779.7561985880524 601.2213014920316 15.000000000002116
    vertex 784.7561985880521 601.2213014920314 100.00000000000327
    vertex 779.7561985880524 601.2213014920314 100.00000000000327
  endloop
endfacet
facet normal 1.0974728258397528e-15 -1.0 -1.1217418059166964e-14
  outer loop
    vertex 768.7561985880521 601.2213014920318 8.000000000002263
    vertex 736.7561985880521 601.2213014920321 2.188467462804766e-12
    vertex 768.7561985880521 601.2213014920321 2.188467462804766e-12
  endloop
endfacet
facet normal 1.0974728258397528e-15 -1.0 -1.1217418059166964e-14
  outer loop
    vertex 736.7561985880521 601.2213014920321 2.188467462804766e-12
    vertex 768.7561985880521 601.2213014920318 8.000000000002263
    vertex 736.7561985880521 601.2213014920318 8.000000000002263
  endloop
endfacet
facet normal 0.0 -1.0 -3.9815373220619676e-14
  outer loop
    vertex 784.7561985880521 568.2213014920321 9.262673961174527e-13
    vertex 780.7561985880521 568.221301492032 4.000000000000919
    vertex 720.7561985880521 568.2213014920321 9.262673961174527e-13
  endloop
endfacet
facet normal 0.0 -1.0 -3.9815373220619676e-14
  outer loop
    vertex 780.7561985880521 568.221301492032 4.000000000000919
    vertex 784.7561985880521 568.2213014920321 9.262673961174527e-13
    vertex 784.7561985880521 568.2213014920318 8.000000000000911
  endloop
endfacet
facet normal 0.0 -1.0 -3.9815373220619676e-14
  outer loop
    vertex 780.7561985880521 568.221301492032 4.000000000000919
    vertex 784.7561985880521 568.2213014920318 8.000000000000911
    vertex 780.7561985880521 568.2213014920318 8.000000000000911
  endloop
endfacet
facet normal 0.0 -1.0 -3.9815373220619676e-14
  outer loop
    vertex 762.7561985880523 568.2213014920318 8.000000000000911
    vertex 740.7561985880521 568.221301492032 4.000000000000919
    vertex 762.7561985880523 568.221301492032 4.000000000000919
  endloop
endfacet
facet normal 0.0 -1.0 -3.9815373220619676e-14
  outer loop
    vertex 740.7561985880521 568.221301492032 4.000000000000919
    vertex 762.7561985880523 568.2213014920318 8.000000000000911
    vertex 740.7561985880521 568.2213014920318 8.000000000000911
  endloop
endfacet
facet normal 0.0 -1.0 -3.9815373220619676e-14
  outer loop
    vertex 720.7561985880521 568.2213014920321 9.262673961174527e-13
    vertex 724.7561985880521 568.221301492032 4.000000000000919
    vertex 720.7561985880521 568.2213014920318 8.000000000000911
  endloop
endfacet
facet normal 0.0 -1.0 -3.9815373220619676e-14
  outer loop
    vertex 724.7561985880521 568.221301492032 4.000000000000919
    vertex 720.7561985880521 568.2213014920321 9.262673961174527e-13
    vertex 780.7561985880521 568.221301492032 4.000000000000919
  endloop
endfacet
facet normal 0.0 -1.0 -3.9815373220619676e-14
  outer loop
    vertex 724.7561985880521 568.221301492032 4.000000000000919
    vertex 780.7561985880521 568.221301492032 4.000000000000919
    vertex 762.7561985880523 568.221301492032 4.000000000000919
  endloop
endfacet
facet normal 0.0 -1.0 -3.9815373220619676e-14
  outer loop
    vertex 724.7561985880521 568.221301492032 4.000000000000919
    vertex 762.7561985880523 568.221301492032 4.000000000000919
    vertex 740.7561985880521 568.221301492032 4.000000000000919
  endloop
endfacet
facet normal 0.0 -1.0 -3.9815373220619676e-14
  outer loop
    vertex 720.7561985880521 568.2213014920318 8.000000000000911
    vertex 724.7561985880521 568.221301492032 4.000000000000919
    vertex 724.7561985880521 568.2213014920318 8.000000000000911
  endloop
endfacet
facet normal -1.0 0.0 0.0
  outer loop
    vertex 740.7561985880521 574.2213014920319 8.000000000001183
    vertex 740.7561985880521 568.221301492032 4.000000000000919
    vertex 740.7561985880521 568.2213014920318 8.000000000000911
  endloop
endfacet
facet normal -1.0 0.0 0.0
  outer loop
    vertex 740.7561985880521 568.221301492032 4.000000000000919
    vertex 740.7561985880521 574.2213014920319 8.000000000001183
    vertex 740.7561985880521 574.221301492032 4.00000000000119
  endloop
endfacet
facet normal 0.0 -3.9815373220619676e-14 1.0
  outer loop
    vertex 740.7561985880521 568.221301492032 4.000000000000919
    vertex 724.7561985880521 574.221301492032 4.00000000000119
    vertex 724.7561985880521 568.221301492032 4.000000000000919
  endloop
endfacet
facet normal 0.0 -3.9815373220619676e-14 1.0
  outer loop
    vertex 724.7561985880521 574.221301492032 4.00000000000119
    vertex 740.7561985880521 568.221301492032 4.000000000000919
    vertex 740.7561985880521 574.221301492032 4.00000000000119
  endloop
endfacet
facet normal 1.0 0.0 0.0
  outer loop
    vertex 725.7561985880519 601.2213014920316 15.000000000002116
    vertex 725.7561985880519 606.2213014920314 100.00000000000327
    vertex 725.7561985880519 601.2213014920314 100.00000000000327
  endloop
endfacet
facet normal 1.0 0.0 0.0
  outer loop
    vertex 725.7561985880519 606.2213014920314 100.00000000000327
    vertex 725.7561985880519 601.2213014920316 15.000000000002116
    vertex 725.7561985880519 606.2213014920316 15.000000000002297
  endloop
endfacet
facet normal -1.0 0.0 0.0
  outer loop
    vertex 779.7561985880524 606.2213014920314 100.00000000000327
    vertex 779.7561985880524 601.2213014920316 15.000000000002116
    vertex 779.7561985880524 601.2213014920314 100.00000000000327
  endloop
endfacet
facet normal -1.0 0.0 0.0
  outer loop
    vertex 779.7561985880524 601.2213014920316 15.000000000002116
    vertex 779.7561985880524 606.2213014920314 100.00000000000327
    vertex 779.7561985880524 606.2213014920316 15.000000000002206
  endloop
endfacet
facet normal 1.0 0.0 0.0
  outer loop
    vertex 724.7561985880521 568.221301492032 4.000000000000919
    vertex 724.7561985880521 580.8213014920318 8.000000000001453
    vertex 724.7561985880521 568.2213014920318 8.000000000000911
  endloop
endfacet
facet normal 1.0 0.0 0.0
  outer loop
    vertex 724.7561985880521 580.8213014920318 8.000000000001453
    vertex 724.7561985880521 568.221301492032 4.000000000000919
    vertex 724.7561985880521 574.221301492032 4.00000000000119
  endloop
endfacet
facet normal 1.0 0.0 0.0
  outer loop
    vertex 724.7561985880521 580.8213014920318 8.000000000001453
    vertex 724.7561985880521 574.221301492032 4.00000000000119
    vertex 724.7561985880521 574.2213014920321 1.1967760116249338e-12
  endloop
endfacet
facet normal 1.0 0.0 0.0
  outer loop
    vertex 724.7561985880521 580.8213014920318 8.000000000001453
    vertex 724.7561985880521 574.2213014920321 1.1967760116249338e-12
    vertex 724.7561985880521 580.8213014920321 1.3770248830091701e-12
  endloop
endfacet
facet normal 1.0 0.0 0.0
  outer loop
    vertex 784.7561985880521 568.2213014920321 9.262673961174527e-13
    vertex 784.7561985880521 601.2213014920318 8.000000000002263
    vertex 784.7561985880521 568.2213014920318 8.000000000000911
  endloop
endfacet
facet normal 1.0 0.0 0.0
  outer loop
    vertex 784.7561985880521 601.2213014920318 8.000000000002263
    vertex 784.7561985880521 568.2213014920321 9.262673961174527e-13
    vertex 784.7561985880521 606.2213014920322 2.4590107727817666e-12
  endloop
endfacet
facet normal 1.0 0.0 0.0
  outer loop
    vertex 784.7561985880521 601.2213014920318 8.000000000002263
    vertex 784.7561985880521 606.2213014920322 2.4590107727817666e-12
    vertex 784.7561985880521 606.2213014920314 100.00000000000327
  endloop
endfacet
facet normal 1.0 0.0 0.0
  outer loop
    vertex 784.7561985880521 606.2213014920314 100.00000000000327
    vertex 784.7561985880521 601.2213014920314 100.00000000000327
    vertex 784.7561985880521 601.2213014920318 8.000000000002263
  endloop
endfacet
facet normal 0.0 -3.9815373220619676e-14 1.0
  outer loop
    vertex 762.7561985880523 568.2213014920318 8.000000000000911
    vertex 740.7561985880521 574.2213014920319 8.000000000001183
    vertex 740.7561985880521 568.2213014920318 8.000000000000911
  endloop
endfacet
facet normal 0.0 -3.9815373220619676e-14 1.0
  outer loop
    vertex 740.7561985880521 574.2213014920319 8.000000000001183
    vertex 762.7561985880523 568.2213014920318 8.000000000000911
    vertex 762.7561985880523 574.2213014920319 8.000000000001183
  endloop
endfacet
facet normal -1.0 0.0 0.0
  outer loop
    vertex 720.7561985880521 606.2213014920314 100.00000000000327
    vertex 720.7561985880521 601.2213014920318 8.000000000002263
    vertex 720.7561985880521 601.2213014920314 100.00000000000327
  endloop
endfacet
facet normal -1.0 0.0 0.0
  outer loop
    vertex 720.7561985880521 601.2213014920318 8.000000000002263
    vertex 720.7561985880521 568.2213014920321 9.262673961174527e-13
    vertex 720.7561985880521 568.2213014920318 8.000000000000911
  endloop
endfacet
facet normal -1.0 0.0 0.0
  outer loop
    vertex 720.7561985880521 568.2213014920321 9.262673961174527e-13
    vertex 720.7561985880521 601.2213014920318 8.000000000002263
    vertex 720.7561985880521 606.2213014920322 2.4590107727817666e-12
  endloop
endfacet
facet normal -1.0 0.0 0.0
  outer loop
    vertex 720.7561985880521 606.2213014920322 2.4590107727817666e-12
    vertex 720.7561985880521 601.2213014920318 8.000000000002263
    vertex 720.7561985880521 606.2213014920314 100.00000000000327
  endloop
endfacet
facet normal 0.0 1.0 3.9815373220619676e-14
  outer loop
    vertex 740.7561985880521 574.2213014920319 8.000000000001183
    vertex 762.7561985880523 574.221301492032 4.00000000000119
    vertex 740.7561985880521 574.221301492032 4.00000000000119
  endloop
endfacet
facet normal 0.0 1.0 3.9815373220619676e-14
  outer loop
    vertex 762.7561985880523 574.221301492032 4.00000000000119
    vertex 740.7561985880521 574.2213014920319 8.000000000001183
    vertex 762.7561985880523 574.2213014920319 8.000000000001183
  endloop
endfacet
facet normal 0.0 1.0 3.9815373220619676e-14
  outer loop
    vertex 724.7561985880521 574.221301492032 4.00000000000119
    vertex 780.7561985880521 574.2213014920321 1.1967760116249338e-12
    vertex 724.7561985880521 574.2213014920321 1.1967760116249338e-12
  endloop
endfacet
facet normal 0.0 1.0 3.9815373220619676e-14
  outer loop
    vertex 780.7561985880521 574.2213014920321 1.1967760116249338e-12
    vertex 724.7561985880521 574.221301492032 4.00000000000119
    vertex 780.7561985880521 574.221301492032 4.00000000000119
  endloop
endfacet
facet normal 0.0 1.0 3.9815373220619676e-14
  outer loop
    vertex 780.7561985880521 574.221301492032 4.00000000000119
    vertex 724.7561985880521 574.221301492032 4.00000000000119
    vertex 740.7561985880521 574.221301492032 4.00000000000119
  endloop
endfacet
facet normal 0.0 1.0 3.9815373220619676e-14
  outer loop
    vertex 780.7561985880521 574.221301492032 4.00000000000119
    vertex 740.7561985880521 574.221301492032 4.00000000000119
    vertex 762.7561985880523 574.221301492032 4.00000000000119
  endloop
endfacet
facet normal 0.0 3.469446951953614e-17 1.0
  outer loop
    vertex 784.7561985880521 601.2213014920314 100.00000000000327
    vertex 779.7561985880524 606.2213014920314 100.00000000000327
    vertex 779.7561985880524 601.2213014920314 100.00000000000327
  endloop
endfacet
facet normal 0.0 3.469446951953614e-17 1.0
  outer loop
    vertex 779.7561985880524 606.2213014920314 100.00000000000327
    vertex 784.7561985880521 601.2213014920314 100.00000000000327
    vertex 784.7561985880521 606.2213014920314 100.00000000000327
  endloop
endfacet
facet normal 0.0 -3.9815373220619676e-14 1.0
  outer loop
    vertex 780.7561985880521 568.221301492032 4.000000000000919
    vertex 762.7561985880523 574.221301492032 4.00000000000119
    vertex 762.7561985880523 568.221301492032 4.000000000000919
  endloop
endfacet
facet normal 0.0 -3.9815373220619676e-14 1.0
  outer loop
    vertex 762.7561985880523 574.221301492032 4.00000000000119
    vertex 780.7561985880521 568.221301492032 4.000000000000919
    vertex 780.7561985880521 574.221301492032 4.00000000000119
  endloop
endfacet
facet normal 0.0 3.9815373220619676e-14 -1.0
  outer loop
    vertex 720.7561985880521 606.2213014920322 2.4590107727817666e-12
    vertex 724.7561985880521 580.8213014920321 1.3770248830091701e-12
    vertex 720.7561985880521 568.2213014920321 9.262673961174527e-13
  endloop
endfacet
facet normal 0.0 3.9815373220619676e-14 -1.0
  outer loop
    vertex 724.7561985880521 580.8213014920321 1.3770248830091701e-12
    vertex 720.7561985880521 606.2213014920322 2.4590107727817666e-12
    vertex 736.7561985880521 601.2213014920321 2.188467462804766e-12
  endloop
endfacet
facet normal 0.0 3.9815373220619676e-14 -1.0
  outer loop
    vertex 736.7561985880521 601.2213014920321 2.188467462804766e-12
    vertex 720.7561985880521 606.2213014920322 2.4590107727817666e-12
    vertex 784.7561985880521 606.2213014920322 2.4590107727817666e-12
  endloop
endfacet
facet normal 0.0 3.9815373220619676e-14 -1.0
  outer loop
    vertex 736.7561985880521 601.2213014920321 2.188467462804766e-12
    vertex 784.7561985880521 606.2213014920322 2.4590107727817666e-12
    vertex 768.7561985880521 601.2213014920321 2.188467462804766e-12
  endloop
endfacet
facet normal 0.0 3.9815373220619676e-14 -1.0
  outer loop
    vertex 768.7561985880521 601.2213014920321 2.188467462804766e-12
    vertex 784.7561985880521 606.2213014920322 2.4590107727817666e-12
    vertex 780.7561985880521 580.9713014920321 1.3770196788387422e-12
  endloop
endfacet
facet normal 0.0 3.9815373220619676e-14 -1.0
  outer loop
    vertex 780.7561985880521 580.9713014920321 1.3770196788387422e-12
    vertex 784.7561985880521 606.2213014920322 2.4590107727817666e-12
    vertex 780.7561985880521 574.2213014920321 1.1967760116249338e-12
  endloop
endfacet
facet normal 0.0 3.9815373220619676e-14 -1.0
  outer loop
    vertex 720.7561985880521 568.2213014920321 9.262673961174527e-13
    vertex 724.7561985880521 574.2213014920321 1.1967760116249338e-12
    vertex 784.7561985880521 568.2213014920321 9.262673961174527e-13
  endloop
endfacet
facet normal 0.0 3.9815373220619676e-14 -1.0
  outer loop
    vertex 724.7561985880521 574.2213014920321 1.1967760116249338e-12
    vertex 720.7561985880521 568.2213014920321 9.262673961174527e-13
    vertex 724.7561985880521 580.8213014920321 1.3770248830091701e-12
  endloop
endfacet
facet normal 0.0 3.9815373220619676e-14 -1.0
  outer loop
    vertex 784.7561985880521 568.2213014920321 9.262673961174527e-13
    vertex 724.7561985880521 574.2213014920321 1.1967760116249338e-12
    vertex 780.7561985880521 574.2213014920321 1.1967760116249338e-12
  endloop
endfacet
facet normal 0.0 3.9815373220619676e-14 -1.0
  outer loop
    vertex 784.7561985880521 568.2213014920321 9.262673961174527e-13
    vertex 780.7561985880521 574.2213014920321 1.1967760116249338e-12
    vertex 784.7561985880521 606.2213014920322 2.4590107727817666e-12
  endloop
endfacet
facet normal 0.0 3.469446951953614e-17 1.0
  outer loop
    vertex 725.7561985880519 601.2213014920314 100.00000000000327
    vertex 720.7561985880521 606.2213014920314 100.00000000000327
    vertex 720.7561985880521 601.2213014920314 100.00000000000327
  endloop
endfacet
facet normal 0.0 3.469446951953614e-17 1.0
  outer loop
    vertex 720.7561985880521 606.2213014920314 100.00000000000327
    vertex 725.7561985880519 601.2213014920314 100.00000000000327
    vertex 725.7561985880519 606.2213014920314 100.00000000000327
  endloop
endfacet
facet normal 1.0254423572901446e-15 -2.7036983762940083e-14 1.0
  outer loop
    vertex 779.7561985880524 601.2213014920316 15.000000000002116
    vertex 725.7561985880519 606.2213014920316 15.000000000002297
    vertex 725.7561985880519 601.2213014920316 15.000000000002116
  endloop
endfacet
facet normal 1.0254423572901446e-15 -2.7036983762940083e-14 1.0
  outer loop
    vertex 725.7561985880519 606.2213014920316 15.000000000002297
    vertex 779.7561985880524 601.2213014920316 15.000000000002116
    vertex 779.7561985880524 606.2213014920316 15.000000000002206
  endloop
endfacet
facet normal 1.0 0.0 0.0
  outer loop
    vertex 762.7561985880523 568.221301492032 4.000000000000919
    vertex 762.7561985880523 574.2213014920319 8.000000000001183
    vertex 762.7561985880523 568.2213014920318 8.000000000000911
  endloop
endfacet
facet normal 1.0 0.0 0.0
  outer loop
    vertex 762.7561985880523 574.2213014920319 8.000000000001183
    vertex 762.7561985880523 568.221301492032 4.000000000000919
    vertex 762.7561985880523 574.221301492032 4.00000000000119
  endloop
endfacet
facet normal 0.0 -3.9815373220619676e-14 1.0
  outer loop
    vertex 724.7561985880521 568.2213014920318 8.000000000000911
    vertex 720.7561985880521 601.2213014920318 8.000000000002263
    vertex 720.7561985880521 568.2213014920318 8.000000000000911
  endloop
endfacet
facet normal 0.0 -3.9815373220619676e-14 1.0
  outer loop
    vertex 720.7561985880521 601.2213014920318 8.000000000002263
    vertex 724.7561985880521 568.2213014920318 8.000000000000911
    vertex 724.7561985880521 580.8213014920318 8.000000000001453
  endloop
endfacet
facet normal 0.0 -3.9815373220619676e-14 1.0
  outer loop
    vertex 720.7561985880521 601.2213014920318 8.000000000002263
    vertex 724.7561985880521 580.8213014920318 8.000000000001453
    vertex 736.7561985880521 601.2213014920318 8.000000000002263
  endloop
endfacet
facet normal 7.863674115413739e-17 -3.982380629744233e-14 1.0
  outer loop
    vertex 784.7561985880521 568.2213014920318 8.000000000000911
    vertex 780.7561985880521 580.9713014920318 8.000000000001453
    vertex 780.7561985880521 568.2213014920318 8.000000000000911
  endloop
endfacet
facet normal 7.863674115413739e-17 -3.982380629744233e-14 1.0
  outer loop
    vertex 780.7561985880521 580.9713014920318 8.000000000001453
    vertex 784.7561985880521 601.2213014920318 8.000000000002263
    vertex 768.7561985880521 601.2213014920318 8.000000000002263
  endloop
endfacet
facet normal 7.863674115413739e-17 -3.982380629744233e-14 1.0
  outer loop
    vertex 784.7561985880521 601.2213014920318 8.000000000002263
    vertex 780.7561985880521 580.9713014920318 8.000000000001453
    vertex 784.7561985880521 568.2213014920318 8.000000000000911
  endloop
endfacet
facet normal 0.8619342151577694 -0.5070201265633939 -2.0187195569487353e-14
  outer loop
    vertex 724.7561985880521 580.8213014920321 1.3770248830091701e-12
    vertex 736.7561985880521 601.2213014920318 8.000000000002263
    vertex 724.7561985880521 580.8213014920318 8.000000000001453
  endloop
endfacet
facet normal 0.8619342151577694 -0.5070201265633939 -2.0187195569487353e-14
  outer loop
    vertex 736.7561985880521 601.2213014920318 8.000000000002263
    vertex 724.7561985880521 580.8213014920321 1.3770248830091701e-12
    vertex 736.7561985880521 601.2213014920321 2.188467462804766e-12
  endloop
endfacet
facet normal -0.8602915336341747 -0.5098023903017324 -2.0275685029206294e-14
  outer loop
    vertex 768.7561985880521 601.2213014920318 8.000000000002263
    vertex 780.7561985880521 580.9713014920321 1.3770196788387422e-12
    vertex 780.7561985880521 580.9713014920318 8.000000000001453
  endloop
endfacet
facet normal -0.8602915336341747 -0.5098023903017324 -2.0275685029206294e-14
  outer loop
    vertex 780.7561985880521 580.9713014920321 1.3770196788387422e-12
    vertex 768.7561985880521 601.2213014920318 8.000000000002263
    vertex 768.7561985880521 601.2213014920321 2.188467462804766e-12
  endloop
endfacet
facet normal -1.0 0.0 0.0
  outer loop
    vertex 780.7561985880521 580.9713014920318 8.000000000001453
    vertex 780.7561985880521 568.221301492032 4.000000000000919
    vertex 780.7561985880521 568.2213014920318 8.000000000000911
  endloop
endfacet
facet normal -1.0 0.0 0.0
  outer loop
    vertex 780.7561985880521 568.221301492032 4.000000000000919
    vertex 780.7561985880521 580.9713014920318 8.000000000001453
    vertex 780.7561985880521 574.221301492032 4.00000000000119
  endloop
endfacet
facet normal -1.0 0.0 0.0
  outer loop
    vertex 780.7561985880521 574.221301492032 4.00000000000119
    vertex 780.7561985880521 580.9713014920318 8.000000000001453
    vertex 780.7561985880521 574.2213014920321 1.1967760116249338e-12
  endloop
endfacet
facet normal -1.0 0.0 0.0
  outer loop
    vertex 780.7561985880521 574.2213014920321 1.1967760116249338e-12
    vertex 780.7561985880521 580.9713014920318 8.000000000001453
    vertex 780.7561985880521 580.9713014920321 1.3770196788387422e-12
  endloop
endfacet
facet normal 6.492331425011354e-19 1.0 1.0306089601987049e-14
  outer loop
    vertex 720.7561985880521 606.2213014920322 2.4590107727817666e-12
    vertex 725.7561985880519 606.2213014920316 15.000000000002297
    vertex 784.7561985880521 606.2213014920322 2.4590107727817666e-12
  endloop
endfacet
facet normal 6.492331425011354e-19 1.0 1.0306089601987049e-14
  outer loop
    vertex 725.7561985880519 606.2213014920316 15.000000000002297
    vertex 720.7561985880521 606.2213014920322 2.4590107727817666e-12
    vertex 720.7561985880521 606.2213014920314 100.00000000000327
  endloop
endfacet
facet normal 6.492331425011354e-19 1.0 1.0306089601987049e-14
  outer loop
    vertex 784.7561985880521 606.2213014920322 2.4590107727817666e-12
    vertex 725.7561985880519 606.2213014920316 15.000000000002297
    vertex 779.7561985880524 606.2213014920316 15.000000000002206
  endloop
endfacet
facet normal 6.492331425011354e-19 1.0 1.0306089601987049e-14
  outer loop
    vertex 725.7561985880519 606.2213014920316 15.000000000002297
    vertex 720.7561985880521 606.2213014920314 100.00000000000327
    vertex 725.7561985880519 606.2213014920314 100.00000000000327
  endloop
endfacet
facet normal 6.492331425011354e-19 1.0 1.0306089601987049e-14
  outer loop
    vertex 779.7561985880524 606.2213014920316 15.000000000002206
    vertex 784.7561985880521 606.2213014920314 100.00000000000327
    vertex 784.7561985880521 606.2213014920322 2.4590107727817666e-12
  endloop
endfacet
facet normal 6.492331425011354e-19 1.0 1.0306089601987049e-14
  outer loop
    vertex 784.7561985880521 606.2213014920314 100.00000000000327
    vertex 779.7561985880524 606.2213014920316 15.000000000002206
    vertex 779.7561985880524 606.2213014920314 100.00000000000327
  endloop
endfacet
endsolid Camera_stand_long
