solid Camera_stand (1)
facet normal -1.0 -0.0 0.0
  outer loop
    vertex 720.7561985880521 568.2213014920333 7.999999999999024
    vertex 720.7561985880521 606.2213014920336 8.23430212903986e-13
    vertex 720.7561985880521 568.2213014920336 -9.611256235331213e-13
  endloop
endfacet
facet normal -1.0 -0.0 0.0
  outer loop
    vertex 720.7561985880521 606.2213014920336 8.23430212903986e-13
    vertex 720.7561985880521 568.2213014920333 7.999999999999024
    vertex 720.7561985880521 601.2213014920333 8.000000000000595
  endloop
endfacet
facet normal -1.0 -0.0 0.0
  outer loop
    vertex 720.7561985880521 606.2213014920336 8.23430212903986e-13
    vertex 720.7561985880521 601.2213014920333 8.000000000000595
    vertex 720.7561985880521 606.2213014920328 18.00000000000079
  endloop
endfacet
facet normal -1.0 -0.0 0.0
  outer loop
    vertex 720.7561985880521 606.2213014920328 18.00000000000079
    vertex 720.7561985880521 601.2213014920333 8.000000000000595
    vertex 720.7561985880521 601.2213014920328 18.000000000000576
  endloop
endfacet
facet normal 0.8619342151577696 -0.507020126563394 -2.354703728591476e-14
  outer loop
    vertex 736.7561985880521 601.2213014920336 5.197536845358283e-13
    vertex 724.7561985880521 580.8213014920333 7.999999999999648
    vertex 724.7561985880521 580.8213014920336 -4.2687242629568797e-13
  endloop
endfacet
facet normal 0.8619342151577696 -0.507020126563394 -2.354703728591476e-14
  outer loop
    vertex 724.7561985880521 580.8213014920333 7.999999999999648
    vertex 736.7561985880521 601.2213014920336 5.197536845358283e-13
    vertex 736.7561985880521 601.2213014920333 8.000000000000595
  endloop
endfacet
facet normal 0.0 4.644201689885108e-14 -1.0
  outer loop
    vertex 784.7561985880521 606.2213014920336 8.23430212903986e-13
    vertex 768.7561985880521 601.2213014920336 5.197536845358283e-13
    vertex 720.7561985880521 606.2213014920336 8.23430212903986e-13
  endloop
endfacet
facet normal 0.0 4.644201689885108e-14 -1.0
  outer loop
    vertex 768.7561985880521 601.2213014920336 5.197536845358283e-13
    vertex 784.7561985880521 606.2213014920336 8.23430212903986e-13
    vertex 780.7561985880521 580.9713014920336 -4.2588363391438144e-13
  endloop
endfacet
facet normal 0.0 4.644201689885108e-14 -1.0
  outer loop
    vertex 780.7561985880521 580.9713014920336 -4.2588363391438144e-13
    vertex 784.7561985880521 606.2213014920336 8.23430212903986e-13
    vertex 784.7561985880521 568.2213014920336 -9.611256235331213e-13
  endloop
endfacet
facet normal 0.0 4.644201689885108e-14 -1.0
  outer loop
    vertex 780.7561985880521 580.9713014920336 -4.2588363391438144e-13
    vertex 784.7561985880521 568.2213014920336 -9.611256235331213e-13
    vertex 780.7561985880521 574.2213014920336 -6.508571459562517e-13
  endloop
endfacet
facet normal 0.0 4.644201689885108e-14 -1.0
  outer loop
    vertex 780.7561985880521 574.2213014920336 -6.508571459562517e-13
    vertex 784.7561985880521 568.2213014920336 -9.611256235331213e-13
    vertex 724.7561985880521 574.2213014920336 -6.508571459562517e-13
  endloop
endfacet
facet normal 0.0 4.644201689885108e-14 -1.0
  outer loop
    vertex 720.7561985880521 606.2213014920336 8.23430212903986e-13
    vertex 724.7561985880521 580.8213014920336 -4.2687242629568797e-13
    vertex 720.7561985880521 568.2213014920336 -9.611256235331213e-13
  endloop
endfacet
facet normal 0.0 4.644201689885108e-14 -1.0
  outer loop
    vertex 724.7561985880521 580.8213014920336 -4.2687242629568797e-13
    vertex 720.7561985880521 606.2213014920336 8.23430212903986e-13
    vertex 736.7561985880521 601.2213014920336 5.197536845358283e-13
  endloop
endfacet
facet normal 0.0 4.644201689885108e-14 -1.0
  outer loop
    vertex 736.7561985880521 601.2213014920336 5.197536845358283e-13
    vertex 720.7561985880521 606.2213014920336 8.23430212903986e-13
    vertex 768.7561985880521 601.2213014920336 5.197536845358283e-13
  endloop
endfacet
facet normal 0.0 4.644201689885108e-14 -1.0
  outer loop
    vertex 720.7561985880521 568.2213014920336 -9.611256235331213e-13
    vertex 724.7561985880521 580.8213014920336 -4.2687242629568797e-13
    vertex 724.7561985880521 574.2213014920336 -6.508571459562517e-13
  endloop
endfacet
facet normal 0.0 4.644201689885108e-14 -1.0
  outer loop
    vertex 720.7561985880521 568.2213014920336 -9.611256235331213e-13
    vertex 724.7561985880521 574.2213014920336 -6.508571459562517e-13
    vertex 784.7561985880521 568.2213014920336 -9.611256235331213e-13
  endloop
endfacet
facet normal 1.0 0.0 0.0
  outer loop
    vertex 784.7561985880521 606.2213014920336 8.23430212903986e-13
    vertex 784.7561985880521 568.2213014920333 7.999999999999024
    vertex 784.7561985880521 568.2213014920336 -9.611256235331213e-13
  endloop
endfacet
facet normal 1.0 0.0 0.0
  outer loop
    vertex 784.7561985880521 568.2213014920333 7.999999999999024
    vertex 784.7561985880521 606.2213014920336 8.23430212903986e-13
    vertex 784.7561985880521 601.2213014920333 8.000000000000595
  endloop
endfacet
facet normal 1.0 0.0 0.0
  outer loop
    vertex 784.7561985880521 601.2213014920333 8.000000000000595
    vertex 784.7561985880521 606.2213014920336 8.23430212903986e-13
    vertex 784.7561985880521 606.2213014920328 18.00000000000079
  endloop
endfacet
facet normal 1.0 0.0 0.0
  outer loop
    vertex 784.7561985880521 601.2213014920333 8.000000000000595
    vertex 784.7561985880521 606.2213014920328 18.00000000000079
    vertex 784.7561985880521 601.2213014920328 18.000000000000576
  endloop
endfacet
facet normal -0.8602915336341747 -0.5098023903017324 -2.3653963816046527e-14
  outer loop
    vertex 780.7561985880521 580.9713014920333 7.99999999999965
    vertex 768.7561985880521 601.2213014920336 5.197536845358283e-13
    vertex 780.7561985880521 580.9713014920336 -4.2588363391438144e-13
  endloop
endfacet
facet normal -0.8602915336341747 -0.5098023903017324 -2.3653963816046527e-14
  outer loop
    vertex 768.7561985880521 601.2213014920336 5.197536845358283e-13
    vertex 780.7561985880521 580.9713014920333 7.99999999999965
    vertex 768.7561985880521 601.2213014920333 8.000000000000595
  endloop
endfacet
facet normal 7.863674115413739e-17 -4.6450449975673733e-14 1.0
  outer loop
    vertex 780.7561985880521 580.9713014920333 7.99999999999965
    vertex 784.7561985880521 601.2213014920333 8.000000000000595
    vertex 768.7561985880521 601.2213014920333 8.000000000000595
  endloop
endfacet
facet normal 7.863674115413739e-17 -4.6450449975673733e-14 1.0
  outer loop
    vertex 784.7561985880521 601.2213014920333 8.000000000000595
    vertex 780.7561985880521 580.9713014920333 7.99999999999965
    vertex 784.7561985880521 568.2213014920333 7.999999999999024
  endloop
endfacet
facet normal 7.863674115413739e-17 -4.6450449975673733e-14 1.0
  outer loop
    vertex 784.7561985880521 568.2213014920333 7.999999999999024
    vertex 780.7561985880521 580.9713014920333 7.99999999999965
    vertex 780.7561985880521 568.2213014920333 7.999999999999024
  endloop
endfacet
facet normal 0.0 -4.644201689885108e-14 1.0
  outer loop
    vertex 720.7561985880521 601.2213014920328 18.000000000000576
    vertex 784.7561985880521 606.2213014920328 18.00000000000079
    vertex 720.7561985880521 606.2213014920328 18.00000000000079
  endloop
endfacet
facet normal 0.0 -4.644201689885108e-14 1.0
  outer loop
    vertex 784.7561985880521 606.2213014920328 18.00000000000079
    vertex 720.7561985880521 601.2213014920328 18.000000000000576
    vertex 784.7561985880521 601.2213014920328 18.000000000000576
  endloop
endfacet
facet normal 0.0 -1.0 -4.644201689885108e-14
  outer loop
    vertex 768.7561985880521 601.2213014920336 5.197536845358283e-13
    vertex 736.7561985880521 601.2213014920333 8.000000000000595
    vertex 736.7561985880521 601.2213014920336 5.197536845358283e-13
  endloop
endfacet
facet normal 0.0 -1.0 -4.644201689885108e-14
  outer loop
    vertex 736.7561985880521 601.2213014920333 8.000000000000595
    vertex 720.7561985880521 601.2213014920328 18.000000000000576
    vertex 720.7561985880521 601.2213014920333 8.000000000000595
  endloop
endfacet
facet normal 0.0 -1.0 -4.644201689885108e-14
  outer loop
    vertex 720.7561985880521 601.2213014920328 18.000000000000576
    vertex 736.7561985880521 601.2213014920333 8.000000000000595
    vertex 784.7561985880521 601.2213014920328 18.000000000000576
  endloop
endfacet
facet normal 0.0 -1.0 -4.644201689885108e-14
  outer loop
    vertex 784.7561985880521 601.2213014920328 18.000000000000576
    vertex 736.7561985880521 601.2213014920333 8.000000000000595
    vertex 768.7561985880521 601.2213014920333 8.000000000000595
  endloop
endfacet
facet normal 0.0 -1.0 -4.644201689885108e-14
  outer loop
    vertex 768.7561985880521 601.2213014920333 8.000000000000595
    vertex 736.7561985880521 601.2213014920333 8.000000000000595
    vertex 768.7561985880521 601.2213014920336 5.197536845358283e-13
  endloop
endfacet
facet normal 0.0 -1.0 -4.644201689885108e-14
  outer loop
    vertex 784.7561985880521 601.2213014920328 18.000000000000576
    vertex 768.7561985880521 601.2213014920333 8.000000000000595
    vertex 784.7561985880521 601.2213014920333 8.000000000000595
  endloop
endfacet
facet normal 2.2165591215016415e-29 1.0 4.607147996438296e-14
  outer loop
    vertex 780.7561985880521 574.2213014920334 3.999999999999342
    vertex 724.7561985880521 574.2213014920336 -6.508571459562517e-13
    vertex 724.7561985880521 574.2213014920334 3.999999999999342
  endloop
endfacet
facet normal 2.2165591215016415e-29 1.0 4.607147996438296e-14
  outer loop
    vertex 724.7561985880521 574.2213014920336 -6.508571459562517e-13
    vertex 780.7561985880521 574.2213014920334 3.999999999999342
    vertex 780.7561985880521 574.2213014920336 -6.508571459562517e-13
  endloop
endfacet
facet normal 0.0 -5.171141292947797e-14 1.0
  outer loop
    vertex 724.7561985880521 568.2213014920334 3.999999999999032
    vertex 780.7561985880521 574.2213014920334 3.999999999999342
    vertex 724.7561985880521 574.2213014920334 3.999999999999342
  endloop
endfacet
facet normal 0.0 -5.171141292947797e-14 1.0
  outer loop
    vertex 780.7561985880521 574.2213014920334 3.999999999999342
    vertex 724.7561985880521 568.2213014920334 3.999999999999032
    vertex 780.7561985880521 568.2213014920334 3.999999999999032
  endloop
endfacet
facet normal -1.0 -0.0 0.0
  outer loop
    vertex 780.7561985880521 568.2213014920333 7.999999999999024
    vertex 780.7561985880521 574.2213014920334 3.999999999999342
    vertex 780.7561985880521 568.2213014920334 3.999999999999032
  endloop
endfacet
facet normal -1.0 -0.0 0.0
  outer loop
    vertex 780.7561985880521 574.2213014920334 3.999999999999342
    vertex 780.7561985880521 580.9713014920336 -4.2588363391438144e-13
    vertex 780.7561985880521 574.2213014920336 -6.508571459562517e-13
  endloop
endfacet
facet normal -1.0 -0.0 0.0
  outer loop
    vertex 780.7561985880521 580.9713014920336 -4.2588363391438144e-13
    vertex 780.7561985880521 574.2213014920334 3.999999999999342
    vertex 780.7561985880521 580.9713014920333 7.99999999999965
  endloop
endfacet
facet normal -1.0 -0.0 0.0
  outer loop
    vertex 780.7561985880521 580.9713014920333 7.99999999999965
    vertex 780.7561985880521 574.2213014920334 3.999999999999342
    vertex 780.7561985880521 568.2213014920333 7.999999999999024
  endloop
endfacet
facet normal 0.0 -4.644201689885108e-14 1.0
  outer loop
    vertex 720.7561985880521 601.2213014920333 8.000000000000595
    vertex 724.7561985880521 580.8213014920333 7.999999999999648
    vertex 736.7561985880521 601.2213014920333 8.000000000000595
  endloop
endfacet
facet normal 0.0 -4.644201689885108e-14 1.0
  outer loop
    vertex 724.7561985880521 580.8213014920333 7.999999999999648
    vertex 720.7561985880521 601.2213014920333 8.000000000000595
    vertex 720.7561985880521 568.2213014920333 7.999999999999024
  endloop
endfacet
facet normal 0.0 -4.644201689885108e-14 1.0
  outer loop
    vertex 724.7561985880521 580.8213014920333 7.999999999999648
    vertex 720.7561985880521 568.2213014920333 7.999999999999024
    vertex 724.7561985880521 568.2213014920333 7.999999999999024
  endloop
endfacet
facet normal 0.0 1.0 4.644201689885108e-14
  outer loop
    vertex 784.7561985880521 606.2213014920328 18.00000000000079
    vertex 720.7561985880521 606.2213014920336 8.23430212903986e-13
    vertex 720.7561985880521 606.2213014920328 18.00000000000079
  endloop
endfacet
facet normal 0.0 1.0 4.644201689885108e-14
  outer loop
    vertex 720.7561985880521 606.2213014920336 8.23430212903986e-13
    vertex 784.7561985880521 606.2213014920328 18.00000000000079
    vertex 784.7561985880521 606.2213014920336 8.23430212903986e-13
  endloop
endfacet
facet normal -9.84347161077855e-30 -1.0 -4.6071479964382436e-14
  outer loop
    vertex 720.7561985880521 568.2213014920336 -9.611256235331213e-13
    vertex 724.7561985880521 568.2213014920334 3.999999999999032
    vertex 720.7561985880521 568.2213014920333 7.999999999999024
  endloop
endfacet
facet normal -9.84347161077855e-30 -1.0 -4.6071479964382436e-14
  outer loop
    vertex 724.7561985880521 568.2213014920334 3.999999999999032
    vertex 720.7561985880521 568.2213014920336 -9.611256235331213e-13
    vertex 784.7561985880521 568.2213014920336 -9.611256235331213e-13
  endloop
endfacet
facet normal -9.84347161077855e-30 -1.0 -4.6071479964382436e-14
  outer loop
    vertex 724.7561985880521 568.2213014920334 3.999999999999032
    vertex 784.7561985880521 568.2213014920336 -9.611256235331213e-13
    vertex 780.7561985880521 568.2213014920334 3.999999999999032
  endloop
endfacet
facet normal -9.84347161077855e-30 -1.0 -4.6071479964382436e-14
  outer loop
    vertex 780.7561985880521 568.2213014920334 3.999999999999032
    vertex 784.7561985880521 568.2213014920336 -9.611256235331213e-13
    vertex 780.7561985880521 568.2213014920333 7.999999999999024
  endloop
endfacet
facet normal -9.84347161077855e-30 -1.0 -4.6071479964382436e-14
  outer loop
    vertex 780.7561985880521 568.2213014920333 7.999999999999024
    vertex 784.7561985880521 568.2213014920336 -9.611256235331213e-13
    vertex 784.7561985880521 568.2213014920333 7.999999999999024
  endloop
endfacet
facet normal -9.84347161077855e-30 -1.0 -4.6071479964382436e-14
  outer loop
    vertex 724.7561985880521 568.2213014920333 7.999999999999024
    vertex 720.7561985880521 568.2213014920333 7.999999999999024
    vertex 724.7561985880521 568.2213014920334 3.999999999999032
  endloop
endfacet
facet normal 1.0 0.0 0.0
  outer loop
    vertex 724.7561985880521 580.8213014920336 -4.2687242629568797e-13
    vertex 724.7561985880521 574.2213014920334 3.999999999999342
    vertex 724.7561985880521 574.2213014920336 -6.508571459562517e-13
  endloop
endfacet
facet normal 1.0 0.0 0.0
  outer loop
    vertex 724.7561985880521 574.2213014920334 3.999999999999342
    vertex 724.7561985880521 580.8213014920336 -4.2687242629568797e-13
    vertex 724.7561985880521 580.8213014920333 7.999999999999648
  endloop
endfacet
facet normal 1.0 0.0 0.0
  outer loop
    vertex 724.7561985880521 574.2213014920334 3.999999999999342
    vertex 724.7561985880521 580.8213014920333 7.999999999999648
    vertex 724.7561985880521 568.2213014920333 7.999999999999024
  endloop
endfacet
facet normal 1.0 0.0 0.0
  outer loop
    vertex 724.7561985880521 568.2213014920333 7.999999999999024
    vertex 724.7561985880521 568.2213014920334 3.999999999999032
    vertex 724.7561985880521 574.2213014920334 3.999999999999342
  endloop
endfacet
endsolid Camera_stand (1)
